<?xml version="1.0" encoding="utf-8"?>
<!-- Generator: Adobe Illustrator 23.0.3, SVG Export Plug-In . SVG Version: 6.00 Build 0)  -->
<svg version="1.1" id="Layer_1" xmlns="http://www.w3.org/2000/svg" xmlns:xlink="http://www.w3.org/1999/xlink" x="0px" y="0px"
	 viewBox="0 0 3072 1294.5" style="enable-background:new 0 0 3072 1294.5;" xml:space="preserve">
<style type="text/css">
	.st0{fill:#001933;}
	.st1{fill:#132237;stroke:#000000;stroke-miterlimit:10;}
	.st2{fill:url(#SVGID_1_);}
	.st3{fill:url(#SVGID_2_);}
	.st4{fill:url(#SVGID_3_);}
	.st5{fill:url(#SVGID_4_);}
	.st6{fill:url(#SVGID_5_);}
	.st7{fill:url(#SVGID_6_);}
	.st8{fill:#FFFFFF;}
	.st9{font-family:'GillSans-Bold';}
	.st10{font-size:469.3504px;}
	.st11{fill:url(#SVGID_7_);}
	.st12{fill:url(#SVGID_8_);}
</style>
<rect class="st0" width="3072" height="1294.5"/>
<g>
	<path class="st1" d="M668.4,1275.9"/>
</g>
<g>
	<path class="st1" d="M1409.9,630.3"/>
</g>
<g>
	<path class="st1" d="M273,590.5"/>
</g>
<g>
	<path class="st1" d="M710.1,1171.2"/>
</g>
<g>
	<path class="st1" d="M1409.9,630.3"/>
</g>
<g>
	<path class="st1" d="M712.8,1054.6"/>
</g>
<g>
	<path class="st1" d="M1409.9,630.3"/>
</g>
<g>
	
		<radialGradient id="SVGID_1_" cx="397.3618" cy="537.8484" r="173.6332" gradientTransform="matrix(1 0 0 -1 0 1296)" gradientUnits="userSpaceOnUse">
		<stop  offset="0" style="stop-color:#3E78B2"/>
		<stop  offset="0.7879" style="stop-color:#2AD2FF"/>
		<stop  offset="1" style="stop-color:#6ABAFF"/>
	</radialGradient>
	<path class="st2" d="M218.9,911.8L473.4,704c23-18.8,28.7-50.8,15.2-75.9c0,0,23.2-53.5,63.4-34.5c2.3,2.8,4.4,5.7,6.4,8.7
		c29.5,44.7,20.9,105.2-21.4,139.8L339.9,903C304.5,931.9,256,934,218.9,911.8z"/>
	
		<radialGradient id="SVGID_2_" cx="413.02" cy="803.1273" r="137.1083" gradientTransform="matrix(1 0 0 -1 0 1296)" gradientUnits="userSpaceOnUse">
		<stop  offset="0" style="stop-color:#3E78B2"/>
		<stop  offset="0.7879" style="stop-color:#2AD2FF"/>
		<stop  offset="1" style="stop-color:#6ABAFF"/>
	</radialGradient>
	<path class="st3" d="M488.7,628.1c-1.8-3.4-4-6.7-6.6-9.8L277.6,367.8c-1.1-1.4-2.4-2.7-3.6-4c40.8-14.5,88.1-2.8,117.1,32.7
		L552,593.6C511.9,574.6,488.7,628.1,488.7,628.1z"/>
</g>
<g>
	<linearGradient id="SVGID_3_" gradientUnits="userSpaceOnUse" x1="777.8782" y1="424.5447" x2="1437.6" y2="424.5447">
		<stop  offset="0" style="stop-color:#FFDB3F"/>
		<stop  offset="0.1195" style="stop-color:#FFB115"/>
		<stop  offset="0.3041" style="stop-color:#FFBF3F"/>
		<stop  offset="0.5306" style="stop-color:#F18D13"/>
		<stop  offset="0.7879" style="stop-color:#F18D13"/>
		<stop  offset="1" style="stop-color:#F18D13"/>
	</linearGradient>
	<path class="st4" d="M1437.6,140.6L967.1,524.7c-42.4,34.7-53,93.8-28.1,140.3c0,0-43,98.8-117.1,63.7c-4.3-5.2-8.2-10.6-11.8-16.1
		c-54.5-82.5-38.7-194.5,39.6-258.4l364.4-297.5C1279.4,103.3,1369,99.5,1437.6,140.6z"/>
	<linearGradient id="SVGID_4_" gradientUnits="userSpaceOnUse" x1="821.85" y1="914.856" x2="1335.72" y2="914.856">
		<stop  offset="0" style="stop-color:#FFDB3F"/>
		<stop  offset="0.1195" style="stop-color:#FFB115"/>
		<stop  offset="0.3041" style="stop-color:#FFBF3F"/>
		<stop  offset="0.5306" style="stop-color:#F18D13"/>
		<stop  offset="0.7879" style="stop-color:#F18D13"/>
		<stop  offset="1" style="stop-color:#F18D13"/>
	</linearGradient>
	<path class="st5" d="M939,665c3.4,6.3,7.4,12.5,12.1,18.2l378,462.9c2.1,2.6,4.3,5.1,6.7,7.4c-75.5,26.8-162.8,5.1-216.4-60.4
		L821.8,728.7C896,763.9,939,665,939,665z"/>
</g>
<g>
	<radialGradient id="SVGID_5_" cx="1139.2882" cy="519.3488" r="173.6329" gradientUnits="userSpaceOnUse">
		<stop  offset="0" style="stop-color:#3E78B2"/>
		<stop  offset="0.7879" style="stop-color:#2AD2FF"/>
		<stop  offset="1" style="stop-color:#6ABAFF"/>
	</radialGradient>
	<path class="st6" d="M1317.8,365.7l-254.6,207.8c-23,18.8-28.7,50.8-15.2,75.9c0,0-23.2,53.5-63.4,34.5c-2.3-2.8-4.4-5.7-6.4-8.7
		c-29.5-44.7-20.9-105.2,21.4-139.8l197.1-161C1232.2,345.6,1280.7,343.5,1317.8,365.7z"/>
	<radialGradient id="SVGID_6_" cx="1123.635" cy="784.6273" r="137.1108" gradientUnits="userSpaceOnUse">
		<stop  offset="0" style="stop-color:#3E78B2"/>
		<stop  offset="0.7879" style="stop-color:#2AD2FF"/>
		<stop  offset="1" style="stop-color:#6ABAFF"/>
	</radialGradient>
	<path class="st7" d="M1048,649.4c1.8,3.4,4,6.7,6.6,9.8l204.5,250.4c1.2,1.4,2.3,2.7,3.6,4c-40.8,14.5-88.1,2.8-117.1-32.7
		l-161-197.1C1024.8,702.9,1048,649.4,1048,649.4z"/>
</g>
<text transform="matrix(1 0 0 1 1212.082 812.3594)" class="st8 st9 st10">Change</text>
<g>
	
		<linearGradient id="SVGID_7_" gradientUnits="userSpaceOnUse" x1="313.6" y1="-1184.4983" x2="973.3217" y2="-1184.4983" gradientTransform="matrix(-1 0 0 -1 1069.4783 -331.506)">
		<stop  offset="0" style="stop-color:#FFDB3F"/>
		<stop  offset="0.1195" style="stop-color:#FFB115"/>
		<stop  offset="0.3041" style="stop-color:#FFBF3F"/>
		<stop  offset="0.5306" style="stop-color:#F18D13"/>
		<stop  offset="0.7879" style="stop-color:#F18D13"/>
		<stop  offset="1" style="stop-color:#F18D13"/>
	</linearGradient>
	<path class="st11" d="M96.2,1137l470.5-384.1c42.4-34.7,53-93.8,28.1-140.3c0,0,43-98.8,117.1-63.7c4.3,5.2,8.2,10.6,11.8,16.1
		c54.5,82.5,38.7,194.5-39.6,258.4l-364.4,297.5C254.4,1174.2,164.7,1178,96.2,1137z"/>
	
		<linearGradient id="SVGID_8_" gradientUnits="userSpaceOnUse" x1="357.5717" y1="-694.187" x2="871.4417" y2="-694.187" gradientTransform="matrix(-1 0 0 -1 1069.4783 -331.506)">
		<stop  offset="0" style="stop-color:#FFDB3F"/>
		<stop  offset="0.1195" style="stop-color:#FFB115"/>
		<stop  offset="0.3041" style="stop-color:#FFBF3F"/>
		<stop  offset="0.5306" style="stop-color:#F18D13"/>
		<stop  offset="0.7879" style="stop-color:#F18D13"/>
		<stop  offset="1" style="stop-color:#F18D13"/>
	</linearGradient>
	<path class="st12" d="M594.8,612.5c-3.4-6.3-7.4-12.5-12.1-18.2l-378-462.9c-2.1-2.6-4.3-5.1-6.7-7.4
		c75.5-26.8,162.8-5.1,216.4,60.4l297.5,364.3C637.7,513.7,594.8,612.5,594.8,612.5z"/>
</g>
</svg>
